<svg width="21" height="22" viewBox="0 0 21 22" fill="none" xmlns="http://www.w3.org/2000/svg">
<path d="M11.4166 6.99993C11.4166 6.58572 11.0808 6.24993 10.6666 6.24993C10.2524 6.24993 9.9166 6.58572 9.9166 6.99993H11.4166ZM9.9166 14.9999C9.9166 15.4141 10.2524 15.7499 10.6666 15.7499C11.0808 15.7499 11.4166 15.4141 11.4166 14.9999H9.9166ZM14.4166 7.99993C14.4166 7.58572 14.0808 7.24993 13.6666 7.24993C13.2524 7.24993 12.9166 7.58572 12.9166 7.99993H14.4166ZM12.9166 13.9999C12.9166 14.4141 13.2524 14.7499 13.6666 14.7499C14.0808 14.7499 14.4166 14.4141 14.4166 13.9999H12.9166ZM17.4166 9.99993C17.4166 9.58572 17.0808 9.24993 16.6666 9.24993C16.2524 9.24993 15.9166 9.58572 15.9166 9.99993H17.4166ZM15.9166 11.9999C15.9166 12.4141 16.2524 12.7499 16.6666 12.7499C17.0808 12.7499 17.4166 12.4141 17.4166 11.9999H15.9166ZM8.4166 7.99993C8.4166 7.58572 8.08081 7.24993 7.6666 7.24993C7.25239 7.24993 6.9166 7.58572 6.9166 7.99993H8.4166ZM6.9166 13.9999C6.9166 14.4141 7.25239 14.7499 7.6666 14.7499C8.08081 14.7499 8.4166 14.4141 8.4166 13.9999H6.9166ZM5.4166 9.99993C5.4166 9.58572 5.08081 9.24993 4.6666 9.24993C4.25239 9.24993 3.9166 9.58572 3.9166 9.99993H5.4166ZM3.9166 11.9999C3.9166 12.4141 4.25239 12.7499 4.6666 12.7499C5.08081 12.7499 5.4166 12.4141 5.4166 11.9999H3.9166ZM19.6416 15.8954L18.9743 15.5531L19.6416 15.8954ZM19.3937 16.3248L20.0238 16.7316L19.3937 16.3248ZM19.3937 5.67504L20.0238 5.26829L19.3937 5.67504ZM19.6416 6.10448L18.9743 6.44681L19.6416 6.10448ZM10.4187 0.779589L10.3815 0.0305113L10.4187 0.779589ZM10.9145 0.779589L10.8773 1.52867L10.9145 0.779589ZM1.69155 6.10448L2.35887 6.44681L1.69155 6.10448ZM1.93949 5.67504L1.30936 5.2683L1.30936 5.2683L1.93949 5.67504ZM1.93949 16.3248L1.30936 16.7316L1.93949 16.3248ZM1.69155 15.8954L2.35887 15.5531L1.69155 15.8954ZM10.4187 21.2203L10.4559 20.4712L10.4187 21.2203ZM10.9145 21.2203L10.9517 21.9694L10.9145 21.2203ZM9.9166 6.99993V14.9999H11.4166V6.99993H9.9166ZM12.9166 7.99993V13.9999H14.4166V7.99993H12.9166ZM15.9166 9.99993V11.9999H17.4166V9.99993H15.9166ZM6.9166 7.99993L6.9166 13.9999H8.4166L8.4166 7.99993H6.9166ZM3.9166 9.99993L3.9166 11.9999H5.4166V9.99993H3.9166ZM19.4429 10.9999C19.4429 12.2867 19.4422 13.2031 19.377 13.9332C19.313 14.649 19.1904 15.1318 18.9743 15.5531L20.309 16.2377C20.6441 15.5844 20.7972 14.8931 20.871 14.0667C20.9436 13.2545 20.9429 12.2604 20.9429 10.9999H19.4429ZM15.8047 19.8995C16.8964 19.2692 17.7576 18.7727 18.4247 18.3038C19.1035 17.8266 19.6256 17.3485 20.0238 16.7316L18.7636 15.9181C18.5068 16.3158 18.15 16.6634 17.5621 17.0767C16.9624 17.4983 16.1691 17.957 15.0547 18.6004L15.8047 19.8995ZM18.9743 15.5531C18.9102 15.6781 18.8398 15.8 18.7636 15.9181L20.0238 16.7316C20.127 16.5718 20.2221 16.4069 20.309 16.2377L18.9743 15.5531ZM15.0547 3.39945C16.1691 4.04285 16.9624 4.50162 17.562 4.92318C18.15 5.33648 18.5068 5.68404 18.7636 6.08179L20.0238 5.26829C19.6256 4.65139 19.1035 4.17323 18.4247 3.69604C17.7576 3.22712 16.8964 2.73066 15.8047 2.10042L15.0547 3.39945ZM20.9429 10.9999C20.9429 9.73944 20.9436 8.74533 20.871 7.93318C20.7972 7.10672 20.6441 6.41546 20.309 5.76215L18.9743 6.44681C19.1904 6.86803 19.313 7.35086 19.377 8.06668C19.4422 8.7968 19.4429 9.71315 19.4429 10.9999H20.9429ZM18.7636 6.08179C18.8398 6.1999 18.9102 6.32173 18.9743 6.44681L20.309 5.76215C20.2221 5.59292 20.127 5.42809 20.0238 5.26829L18.7636 6.08179ZM6.27846 3.39945C7.39285 2.75606 8.18678 2.29848 8.8517 1.98992C9.50359 1.6874 9.98302 1.55214 10.4559 1.52867L10.3815 0.0305113C9.64811 0.0669216 8.97295 0.280012 8.22029 0.629288C7.48066 0.972517 6.62008 1.47017 5.52846 2.10042L6.27846 3.39945ZM15.8047 2.10042C14.7131 1.47017 13.8525 0.972517 13.1129 0.629287C12.3603 0.280012 11.6851 0.0669214 10.9517 0.0305112L10.8773 1.52867C11.3502 1.55214 11.8296 1.6874 12.4815 1.98992C13.1464 2.29848 13.9403 2.75606 15.0547 3.39945L15.8047 2.10042ZM10.4559 1.52867C10.5963 1.52169 10.7369 1.52169 10.8773 1.52867L10.9517 0.0305112C10.7618 0.0210796 10.5714 0.0210796 10.3815 0.0305113L10.4559 1.52867ZM1.89032 10.9999C1.89032 9.71315 1.89101 8.7968 1.95625 8.06668C2.02021 7.35086 2.14278 6.86803 2.35887 6.44681L1.02424 5.76215C0.689088 6.41547 0.536047 7.10672 0.4622 7.93318C0.389631 8.74533 0.39032 9.73944 0.39032 10.9999H1.89032ZM5.52846 2.10042C4.43684 2.73066 3.57557 3.22712 2.90851 3.69604C2.2297 4.17323 1.70758 4.65139 1.30936 5.2683L2.56961 6.08179C2.82636 5.68405 3.18321 5.33648 3.77115 4.92318C4.37083 4.50162 5.16407 4.04285 6.27846 3.39945L5.52846 2.10042ZM2.35887 6.44681C2.42303 6.32173 2.49337 6.1999 2.56961 6.08179L1.30936 5.2683C1.20621 5.4281 1.11105 5.59292 1.02424 5.76215L2.35887 6.44681ZM6.27846 18.6004C5.16407 17.957 4.37083 17.4983 3.77115 17.0767C3.18321 16.6634 2.82636 16.3158 2.56961 15.9181L1.30936 16.7316C1.70758 17.3485 2.2297 17.8266 2.90851 18.3038C3.57557 18.7727 4.43684 19.2692 5.52846 19.8995L6.27846 18.6004ZM0.39032 10.9999C0.39032 12.2604 0.389631 13.2545 0.4622 14.0667C0.536047 14.8932 0.689088 15.5844 1.02424 16.2377L2.35887 15.5531C2.14278 15.1318 2.02021 14.649 1.95625 13.9332C1.89101 13.2031 1.89032 12.2867 1.89032 10.9999H0.39032ZM2.56961 15.9181C2.49337 15.8 2.42304 15.6781 2.35887 15.5531L1.02424 16.2377C1.11105 16.407 1.20621 16.5718 1.30936 16.7316L2.56961 15.9181ZM5.52846 19.8995C6.62008 20.5297 7.48066 21.0274 8.22029 21.3706C8.97295 21.7199 9.64811 21.9329 10.3815 21.9694L10.4559 20.4712C9.98303 20.4477 9.5036 20.3125 8.8517 20.01C8.18678 19.7014 7.39285 19.2438 6.27846 18.6004L5.52846 19.8995ZM15.0547 18.6004C13.9403 19.2438 13.1464 19.7014 12.4815 20.01C11.8296 20.3125 11.3502 20.4477 10.8773 20.4712L10.9517 21.9694C11.6851 21.9329 12.3603 21.7199 13.1129 21.3706C13.8525 21.0274 14.7131 20.5297 15.8047 19.8995L15.0547 18.6004ZM10.3815 21.9694C10.5714 21.9788 10.7618 21.9788 10.9517 21.9694L10.8773 20.4712C10.7369 20.4782 10.5963 20.4782 10.4559 20.4712L10.3815 21.9694Z" fill="#CCD0D3"/>
</svg>
