<svg width="18" height="22" viewBox="0 0 18 22" fill="none" xmlns="http://www.w3.org/2000/svg">
<path d="M17.75 9C17.75 8.58579 17.4142 8.25 17 8.25C16.5858 8.25 16.25 8.58579 16.25 9H17.75ZM1.75 9C1.75 8.58579 1.41421 8.25 1 8.25C0.585786 8.25 0.25 8.58579 0.25 9H1.75ZM6.8181 20.2724C6.41625 20.3729 6.17193 20.7801 6.27239 21.1819C6.37285 21.5837 6.78006 21.8281 7.1819 21.7276L6.8181 20.2724ZM7.78732 20.8032L7.60542 20.0756L7.78732 20.8032ZM10.2127 20.8032L10.3946 20.0756L10.2127 20.8032ZM10.8181 21.7276C11.2199 21.8281 11.6271 21.5837 11.7276 21.1819C11.8281 20.7801 11.5837 20.3729 11.1819 20.2724L10.8181 21.7276ZM7.26283 8.28849C6.86987 8.41947 6.6575 8.84421 6.78849 9.23717C6.91947 9.63013 7.34421 9.8425 7.73717 9.71151L7.26283 8.28849ZM7.73509 8.92164L7.49792 8.21012L7.73509 8.92164ZM10.2649 8.92164L10.0277 9.63315L10.0277 9.63315L10.2649 8.92164ZM10.2628 9.71151C10.6558 9.8425 11.0805 9.63013 11.2115 9.23717C11.3425 8.84421 11.1301 8.41947 10.7372 8.28849L10.2628 9.71151ZM6.8181 4.77239C6.41625 4.87286 6.17193 5.28006 6.27239 5.6819C6.37285 6.08375 6.78006 6.32807 7.1819 6.22761L6.8181 4.77239ZM7.78732 5.30317L7.60542 4.57556L7.78732 5.30317ZM10.2127 5.30317L10.3946 4.57556L10.2127 5.30317ZM10.8181 6.22761C11.2199 6.32807 11.6271 6.08375 11.7276 5.6819C11.8281 5.28006 11.5837 4.87285 11.1819 4.77239L10.8181 6.22761ZM9 20.6539V21.4039V20.6539ZM12.25 5V9H13.75V5H12.25ZM5.75 9V5H4.25V9H5.75ZM9 12.25C7.20507 12.25 5.75 10.7949 5.75 9H4.25C4.25 11.6234 6.37665 13.75 9 13.75V12.25ZM12.25 9C12.25 10.7949 10.7949 12.25 9 12.25V13.75C11.6234 13.75 13.75 11.6234 13.75 9H12.25ZM9 1.75C10.7949 1.75 12.25 3.20507 12.25 5H13.75C13.75 2.37665 11.6234 0.25 9 0.25V1.75ZM9 0.25C6.37665 0.25 4.25 2.37665 4.25 5H5.75C5.75 3.20507 7.20507 1.75 9 1.75V0.25ZM16.25 9C16.25 13.0041 13.0041 16.25 9 16.25V17.75C13.8325 17.75 17.75 13.8325 17.75 9H16.25ZM9 16.25C4.99594 16.25 1.75 13.0041 1.75 9H0.25C0.25 13.8325 4.16751 17.75 9 17.75V16.25ZM8.25 18V20H9.75V18H8.25ZM7.1819 21.7276L7.96922 21.5308L7.60542 20.0756L6.8181 20.2724L7.1819 21.7276ZM10.0308 21.5308L10.8181 21.7276L11.1819 20.2724L10.3946 20.0756L10.0308 21.5308ZM7.73717 9.71151L7.97226 9.63315L7.49792 8.21012L7.26283 8.28849L7.73717 9.71151ZM10.0277 9.63315L10.2628 9.71151L10.7372 8.28849L10.5021 8.21012L10.0277 9.63315ZM7.97226 9.63315C8.63938 9.41078 9.36062 9.41078 10.0277 9.63315L10.5021 8.21012C9.52706 7.88512 8.47294 7.88512 7.49792 8.21012L7.97226 9.63315ZM7.1819 6.22761L7.96922 6.03078L7.60542 4.57556L6.8181 4.77239L7.1819 6.22761ZM10.0308 6.03078L10.8181 6.22761L11.1819 4.77239L10.3946 4.57556L10.0308 6.03078ZM7.96922 6.03078C8.64599 5.86158 9.35401 5.86158 10.0308 6.03078L10.3946 4.57556C9.47895 4.34666 8.52105 4.34666 7.60542 4.57556L7.96922 6.03078ZM9.75 18V17H8.25V18H9.75ZM7.96922 21.5308C8.30761 21.4462 8.6538 21.4039 9 21.4039V19.9039C8.53162 19.9039 8.06323 19.9611 7.60542 20.0756L7.96922 21.5308ZM9 21.4039C9.3462 21.4039 9.69239 21.4462 10.0308 21.5308L10.3946 20.0756C9.93677 19.9611 9.46838 19.9039 9 19.9039V21.4039ZM8.25 20V20.6539H9.75V20H8.25Z" fill="#CCD0D3"/>
</svg>
